<svg width="368" height="368" viewBox="0 0 368 368" fill="none" xmlns="http://www.w3.org/2000/svg">
<g filter="url(#filter0_d_296_16)">
<g clip-path="url(#clip0_296_16)">
<rect x="24" y="12" width="320" height="320" rx="75.2" fill="url(#paint0_linear_296_16)"/>
<circle cx="97.6" cy="53.6" r="131.2" fill="white" fill-opacity="0.12"/>
<rect x="106.4" y="94.4" width="65.6" height="65.6" rx="16.64" fill="white" fill-opacity="0.92"/>
<rect x="106.9" y="94.9" width="64.6" height="64.6" rx="16.14" stroke="white" stroke-opacity="0.28"/>
<rect x="196" y="94.4" width="65.6" height="65.6" rx="16.64" fill="#D6F0FF" fill-opacity="0.94"/>
<rect x="196.5" y="94.9" width="64.6" height="64.6" rx="16.14" stroke="white" stroke-opacity="0.28"/>
<rect x="106.4" y="184" width="65.6" height="65.6" rx="16.64" fill="#D6F0FF" fill-opacity="0.94"/>
<rect x="106.9" y="184.5" width="64.6" height="64.6" rx="16.14" stroke="white" stroke-opacity="0.28"/>
<rect x="196" y="184" width="65.6" height="65.6" rx="16.64" fill="#0847D6" fill-opacity="0.96"/>
<rect x="196.5" y="184.5" width="64.6" height="64.6" rx="16.14" stroke="white" stroke-opacity="0.3"/>
<path d="M273 54L279.718 72.2825L298 79L279.718 85.7175L273 104L266.282 85.7175L248 79L266.282 72.2825L273 54Z" fill="white" fill-opacity="0.98"/>
<circle cx="297.72" cy="54.85" r="5" fill="white" fill-opacity="0.92"/>
</g>
</g>
<defs>
<filter id="filter0_d_296_16" x="0" y="-0.8" width="368" height="368" filterUnits="userSpaceOnUse" color-interpolation-filters="sRGB">
<feFlood flood-opacity="0" result="BackgroundImageFix"/>
<feColorMatrix in="SourceAlpha" type="matrix" values="0 0 0 0 0 0 0 0 0 0 0 0 0 0 0 0 0 0 127 0" result="hardAlpha"/>
<feOffset dy="11.2"/>
<feGaussianBlur stdDeviation="12"/>
<feColorMatrix type="matrix" values="0 0 0 0 0.02 0 0 0 0 0.04 0 0 0 0 0.1 0 0 0 0.22 0"/>
<feBlend mode="normal" in2="BackgroundImageFix" result="effect1_dropShadow_296_16"/>
<feBlend mode="normal" in="SourceGraphic" in2="effect1_dropShadow_296_16" result="shape"/>
</filter>
<linearGradient id="paint0_linear_296_16" x1="24.9786" y1="86.3731" x2="343.021" y2="257.627" gradientUnits="userSpaceOnUse">
<stop stop-color="#1257F5"/>
<stop offset="0.55" stop-color="#218CFC"/>
<stop offset="1" stop-color="#38D1F0"/>
</linearGradient>
<clipPath id="clip0_296_16">
<rect x="24" y="12" width="320" height="320" rx="75.2" fill="white"/>
</clipPath>
</defs>
</svg>
